<svg width="1438" height="144" viewBox="0 0 1438 144" fill="none" xmlns="http://www.w3.org/2000/svg">
<g clip-path="url(#clip0)">
<path d="M33.9276 33H31V36H33.9276V33Z" fill="#00FAB3" fill-opacity="0.3"/>
<path d="M314.002 33H311.075V36H314.002V33Z" fill="#00FAB3" fill-opacity="0.3"/>
<path d="M173.965 33H171.037V36H173.965V33Z" fill="#00FAB3" fill-opacity="0.3"/>
<path d="M454.527 105.1H451.6V108.1H454.527V105.1Z" fill="#00FAB3" fill-opacity="0.3"/>
<path d="M454.527 33H451.6V36H454.527V33Z" fill="#00FAB3" fill-opacity="0.3"/>
<path d="M524.985 105.1H522.058V108.1H524.985V105.1Z" fill="#00FAB3" fill-opacity="0.3"/>
<path d="M524.985 33H522.058V36H524.985V33Z" fill="#00FAB3" fill-opacity="0.3"/>
<path d="M595.345 105.1H592.417V108.1H595.345V105.1Z" fill="#00FAB3" fill-opacity="0.3"/>
<path d="M595.345 33H592.417V36H595.345V33Z" fill="#00FAB3" fill-opacity="0.3"/>
<path d="M665.803 105.1H662.875V108.1H665.803V105.1Z" fill="#00FAB3" fill-opacity="0.3"/>
<path d="M665.803 33H662.875V36H665.803V33Z" fill="#00FAB3" fill-opacity="0.3"/>
<path d="M736.261 105.1H733.333V108.1H736.261V105.1Z" fill="#00FAB3" fill-opacity="0.3"/>
<path d="M736.261 33H733.333V36H736.261V33Z" fill="#00FAB3" fill-opacity="0.3"/>
<path d="M806.621 105.1H803.693V108.1H806.621V105.1Z" fill="#00FAB3" fill-opacity="0.3"/>
<path d="M806.621 33H803.693V36H806.621V33Z" fill="#00FAB3" fill-opacity="0.3"/>
<path d="M877.079 105.1H874.151V108.1H877.079V105.1Z" fill="#00FAB3" fill-opacity="0.3"/>
<path d="M877.079 33H874.151V36H877.079V33Z" fill="#00FAB3" fill-opacity="0.3"/>
<path d="M947.341 141.1H944.414V144.1H947.341V141.1Z" fill="#00FAB3" fill-opacity="0.3"/>
<path d="M947.341 105.1H944.414V108.1H947.341V105.1Z" fill="#00FAB3" fill-opacity="0.3"/>
<path d="M947.341 69H944.414V72H947.341V69Z" fill="#00FAB3" fill-opacity="0.3"/>
<path d="M947.341 33H944.414V36H947.341V33Z" fill="#00FAB3" fill-opacity="0.3"/>
<path d="M982.668 141.1H979.74V144.1H982.668V141.1Z" fill="#00FAB3" fill-opacity="0.3"/>
<path d="M982.668 105.1H979.74V108.1H982.668V105.1Z" fill="#00FAB3" fill-opacity="0.3"/>
<path d="M982.668 69H979.74V72H982.668V69Z" fill="#00FAB3" fill-opacity="0.3"/>
<path d="M982.668 33H979.74V36H982.668V33Z" fill="#00FAB3" fill-opacity="0.3"/>
<path d="M1017.9 141.1H1014.97V144.1H1017.9V141.1Z" fill="#00FAB3" fill-opacity="0.3"/>
<path d="M1017.9 105.1H1014.97V108.1H1017.9V105.1Z" fill="#00FAB3" fill-opacity="0.3"/>
<path d="M1017.9 69H1014.97V72H1017.9V69Z" fill="#00FAB3" fill-opacity="0.3"/>
<path d="M1017.9 33H1014.97V36H1017.9V33Z" fill="#00FAB3" fill-opacity="0.3"/>
<path d="M1053.22 141.1H1050.3V144.1H1053.22V141.1Z" fill="#00FAB3" fill-opacity="0.3"/>
<path d="M1053.22 105.1H1050.3V108.1H1053.22V105.1Z" fill="#00FAB3" fill-opacity="0.3"/>
<path d="M1053.22 69H1050.3V72H1053.22V69Z" fill="#00FAB3" fill-opacity="0.3"/>
<path d="M1053.22 33H1050.3V36H1053.22V33Z" fill="#00FAB3" fill-opacity="0.3"/>
<path d="M1088.45 141.1H1085.52V144.1H1088.45V141.1Z" fill="#00FAB3" fill-opacity="0.3"/>
<path d="M1088.45 105.1H1085.52V108.1H1088.45V105.1Z" fill="#00FAB3" fill-opacity="0.3"/>
<path d="M1088.45 69H1085.52V72H1088.45V69Z" fill="#00FAB3" fill-opacity="0.3"/>
<path d="M1088.45 33H1085.52V36H1088.45V33Z" fill="#00FAB3" fill-opacity="0.3"/>
<path d="M1123.78 141.1H1120.85V144.1H1123.78V141.1Z" fill="#00FAB3" fill-opacity="0.3"/>
<path d="M1123.78 105.1H1120.85V108.1H1123.78V105.1Z" fill="#00FAB3" fill-opacity="0.3"/>
<path d="M1123.78 69H1120.85V72H1123.78V69Z" fill="#00FAB3" fill-opacity="0.3"/>
<path d="M1123.78 33H1120.85V36H1123.78V33Z" fill="#00FAB3" fill-opacity="0.3"/>
<path d="M1159.01 141.1H1156.08V144.1H1159.01V141.1Z" fill="#00FAB3" fill-opacity="0.3"/>
<path d="M1159.01 105.1H1156.08V108.1H1159.01V105.1Z" fill="#00FAB3" fill-opacity="0.3"/>
<path d="M1159.01 69H1156.08V72H1159.01V69Z" fill="#00FAB3" fill-opacity="0.3"/>
<path d="M1159.01 33H1156.08V36H1159.01V33Z" fill="#00FAB3" fill-opacity="0.3"/>
<path d="M1194.33 141.1H1191.41V144.1H1194.33V141.1Z" fill="#00FAB3" fill-opacity="0.3"/>
<path d="M1194.33 105.1H1191.41V108.1H1194.33V105.1Z" fill="#00FAB3" fill-opacity="0.3"/>
<path d="M1194.33 69H1191.41V72H1194.33V69Z" fill="#00FAB3" fill-opacity="0.3"/>
<path d="M1194.33 33H1191.41V36H1194.33V33Z" fill="#00FAB3" fill-opacity="0.3"/>
<path d="M1229.56 141.1H1226.64V144.1H1229.56V141.1Z" fill="#00FAB3" fill-opacity="0.3"/>
<path d="M1229.56 105.1H1226.64V108.1H1229.56V105.1Z" fill="#00FAB3" fill-opacity="0.3"/>
<path d="M1229.56 69H1226.64V72H1229.56V69Z" fill="#00FAB3" fill-opacity="0.3"/>
<path d="M1229.56 33H1226.64V36H1229.56V33Z" fill="#00FAB3" fill-opacity="0.3"/>
<path d="M1264.89 141.1H1261.96V144.1H1264.89V141.1Z" fill="#00FAB3" fill-opacity="0.3"/>
<path d="M1264.89 105.1H1261.96V108.1H1264.89V105.1Z" fill="#00FAB3" fill-opacity="0.3"/>
<path d="M1264.89 69H1261.96V72H1264.89V69Z" fill="#00FAB3" fill-opacity="0.3"/>
<path d="M1264.89 33H1261.96V36H1264.89V33Z" fill="#00FAB3" fill-opacity="0.3"/>
<path d="M1300.12 141.1H1297.19V144.1H1300.12V141.1Z" fill="#00FAB3" fill-opacity="0.3"/>
<path d="M1300.12 105.1H1297.19V108.1H1300.12V105.1Z" fill="#00FAB3" fill-opacity="0.3"/>
<path d="M1300.12 69H1297.19V72H1300.12V69Z" fill="#00FAB3" fill-opacity="0.3"/>
<path d="M1300.12 33H1297.19V36H1300.12V33Z" fill="#00FAB3" fill-opacity="0.3"/>
<path d="M1335.44 141.1H1332.52V144.1H1335.44V141.1Z" fill="#00FAB3" fill-opacity="0.3"/>
<path d="M1335.44 105.1H1332.52V108.1H1335.44V105.1Z" fill="#00FAB3" fill-opacity="0.3"/>
<path d="M1335.44 69H1332.52V72H1335.44V69Z" fill="#00FAB3" fill-opacity="0.3"/>
<path d="M1335.44 33H1332.52V36H1335.44V33Z" fill="#00FAB3" fill-opacity="0.3"/>
<path d="M1370.67 141.1H1367.75V144.1H1370.67V141.1Z" fill="#00FAB3" fill-opacity="0.3"/>
<path d="M1370.67 105.1H1367.75V108.1H1370.67V105.1Z" fill="#00FAB3" fill-opacity="0.3"/>
<path d="M1370.67 69H1367.75V72H1370.67V69Z" fill="#00FAB3" fill-opacity="0.3"/>
<path d="M1370.67 33H1367.75V36H1370.67V33Z" fill="#00FAB3" fill-opacity="0.3"/>
<path d="M1406 141.1H1403.07V144.1H1406V141.1Z" fill="#00FAB3" fill-opacity="0.3"/>
<path d="M1406 105.1H1403.07V108.1H1406V105.1Z" fill="#00FAB3" fill-opacity="0.3"/>
<path d="M1406 69H1403.07V72H1406V69Z" fill="#00FAB3" fill-opacity="0.3"/>
<path d="M1406 33H1403.07V36H1406V33Z" fill="#00FAB3" fill-opacity="0.3"/>
</g>
<defs>
<clipPath id="clip0">
<rect width="1438" height="144" fill="white"/>
</clipPath>
</defs>
</svg>
